HIERARCHY
ROOT Hips
{
	OFFSET 0.000000 0.000000 0.000000
	CHANNELS 6 Xposition Yposition Zposition Xrotation Yrotation Zrotation
	JOINT LeftUpLeg_virtual
	{
		OFFSET 0.000000 0.000000 0.000000
		CHANNELS 3 Xrotation Yrotation Zrotation
		JOINT LeftUpLeg
		{
			OFFSET 11.394100 -6.187798 -0.413800
			CHANNELS 3 Xrotation Yrotation Zrotation
			JOINT LeftLeg
			{
				OFFSET 0.430247 -32.302673 3.732800
				CHANNELS 3 Xrotation Yrotation Zrotation
				JOINT LeftFoot
				{
					OFFSET -0.430247 -48.264931 -6.423300
					CHANNELS 3 Xrotation Yrotation Zrotation
					JOINT LeftToeBase
					{
						OFFSET 4.230900 -16.068199 23.438400
						CHANNELS 3 Xrotation Yrotation Zrotation
						JOINT LeftToe_End
						{
							OFFSET 4.510700 0.695400 19.974600
							CHANNELS 3 Xrotation Yrotation Zrotation
							End Site
							{
								OFFSET 0 0 0
							}
						}
					}
				}
			}
		}
	}
	JOINT RightUpLeg_virtual
	{
		OFFSET 0.000000 0.000000 0.000000
		CHANNELS 3 Xrotation Yrotation Zrotation
		JOINT RightUpLeg
		{
			OFFSET -11.333700 -6.187798 -0.413800
			CHANNELS 3 Xrotation Yrotation Zrotation
			JOINT RightLeg
			{
				OFFSET -0.430392 -32.302628 3.733000
				CHANNELS 3 Xrotation Yrotation Zrotation
				JOINT RightFoot
				{
					OFFSET 0.430392 -48.264973 -6.423500
					CHANNELS 3 Xrotation Yrotation Zrotation
					JOINT RightToeBase
					{
						OFFSET -4.230900 -16.068199 23.438400
						CHANNELS 3 Xrotation Yrotation Zrotation
						JOINT RightToe_End
						{
							OFFSET -4.510700 0.695400 19.974600
							CHANNELS 3 Xrotation Yrotation Zrotation
							End Site
							{
								OFFSET 0 0 0
							}
						}
					}
				}
			}
		}
	}
	JOINT Spine_virtual
	{
		OFFSET 0.000000 0.000000 0.000000
		CHANNELS 3 Xrotation Yrotation Zrotation
		JOINT Spine
		{
			OFFSET -0.002400 12.777504 0.315300
			CHANNELS 3 Xrotation Yrotation Zrotation
			JOINT Spine1
			{
				OFFSET -0.002067 5.816869 0.032633
				CHANNELS 3 Xrotation Yrotation Zrotation
				JOINT Spine1_split
				{
					OFFSET -0.002067 5.816869 0.032633
					CHANNELS 3 Xrotation Yrotation Zrotation
					JOINT Spine2
					{
						OFFSET -0.002067 5.816869 0.032633
						CHANNELS 3 Xrotation Yrotation Zrotation
						JOINT Neck_virtual
						{
							OFFSET 0.000000 0.000000 0.000000
							CHANNELS 3 Xrotation Yrotation Zrotation
							JOINT Neck
							{
								OFFSET -0.003700 21.199493 -0.826900
								CHANNELS 3 Xrotation Yrotation Zrotation
								JOINT Head
								{
									OFFSET 0.000000 20.442200 4.834800
									CHANNELS 3 Xrotation Yrotation Zrotation
									JOINT HeadTop_End
									{
										OFFSET 0.000000 34.668396 4.968400
										CHANNELS 3 Xrotation Yrotation Zrotation
										End Site
										{
											OFFSET 0 0 0
										}
									}
								}
							}
						}
						JOINT LeftShoulder_virtual
						{
							OFFSET 0.000000 0.000000 0.000000
							CHANNELS 3 Xrotation Yrotation Zrotation
							JOINT LeftShoulder
							{
								OFFSET 3.288150 8.794197 -1.372250
								CHANNELS 3 Xrotation Yrotation Zrotation
								JOINT LeftShoulder_split
								{
									OFFSET 3.288150 8.794197 -1.372250
									CHANNELS 3 Xrotation Yrotation Zrotation
									JOINT LeftArm
									{
										OFFSET 11.953299 -2.279007 -0.146200
										CHANNELS 3 Xrotation Yrotation Zrotation
										JOINT LeftForeArm
										{
											OFFSET 18.448900 0.000000 0.000000
											CHANNELS 3 Xrotation Yrotation Zrotation
											JOINT LeftHand
											{
												OFFSET 29.527798 0.000000 0.000000
												CHANNELS 3 Xrotation Yrotation Zrotation
												End Site
												{
													OFFSET 0 0 0
												}
											}
										}
									}
								}
							}
						}
						JOINT RightShoulder_virtual
						{
							OFFSET 0.000000 0.000000 0.000000
							CHANNELS 3 Xrotation Yrotation Zrotation
							JOINT RightShoulder
							{
								OFFSET -3.249400 8.794197 -1.372250
								CHANNELS 3 Xrotation Yrotation Zrotation
								JOINT RightShoulder_split
								{
									OFFSET -3.249400 8.794197 -1.372250
									CHANNELS 3 Xrotation Yrotation Zrotation
									JOINT RightArm
									{
										OFFSET -11.953299 -2.279007 -0.146200
										CHANNELS 3 Xrotation Yrotation Zrotation
										JOINT RightForeArm
										{
											OFFSET -18.448900 0.000000 0.000000
											CHANNELS 3 Xrotation Yrotation Zrotation
											JOINT RightHand
											{
												OFFSET -29.527802 0.000000 0.000000
												CHANNELS 3 Xrotation Yrotation Zrotation
												End Site
												{
													OFFSET 0 0 0
												}
											}
										}
									}
								}
							}
						}
					}
				}
			}
		}
	}
}
MOTION
Frames: 6
Frame Time: 0.03333333
76.895752 76.721680 172.810776 0.000000 0.000000 0.000000 115.395827 71.159165 -94.819370 -76.178268 -27.007907 25.877613 92.048690 -0.618330 -37.128925 -13.366179 1.096626 18.164039 -75.883395 -30.967627 11.874882 0.000000 0.000000 0.000000 169.599690 71.410727 -158.614218 -100.348415 -1.583521 -50.684119 86.630971 10.448694 -19.677251 -21.114328 -28.233707 56.670247 -28.284165 11.677570 -34.908281 0.000000 0.000000 0.000000 105.374437 68.210135 -86.058977 34.650475 13.902436 22.348874 6.701676 13.157636 2.433958 -0.104655 6.400318 -0.721110 0.000000 0.000000 0.000000 15.663756 14.596138 0.294628 -15.468160 47.054584 55.756450 -172.708942 2.913982 -150.646461 0.000000 0.000000 0.000000 29.084947 10.755600 0.718619 8.312817 -6.223919 11.858120 -24.199784 -3.420608 -0.875039 -27.964628 -73.802489 -17.488144 14.355569 27.634182 4.030825 0.000000 0.000000 0.000000 30.895821 10.744603 -13.622493 -7.409330 -3.109699 -8.501933 -20.933623 -26.262766 15.383403 -62.849174 13.882347 7.233667 22.293836 31.631139 14.153705 0.000000 0.000000 0.000000 
84.534935 71.667618 182.996170 0.000000 0.000000 0.000000 -157.734504 62.270561 -162.462647 -90.141422 -24.222279 19.152544 84.315502 -0.109966 -33.894786 -4.549916 6.131702 15.954588 -66.205133 -30.160708 14.191734 0.000000 0.000000 0.000000 -155.307000 45.465082 176.783095 -106.889804 -1.987967 -44.605541 83.246229 8.491097 -18.043879 -21.664950 -24.491590 58.039129 -26.913175 10.700532 -41.884380 0.000000 0.000000 0.000000 -163.278104 75.263125 -166.979533 32.472133 13.238891 20.544632 5.028738 14.981820 3.218087 0.539807 7.232770 -0.969438 0.000000 0.000000 0.000000 13.344037 16.768705 0.041074 -13.747895 41.164392 54.174489 -171.660727 11.234876 -162.323721 0.000000 0.000000 0.000000 29.195189 12.863932 1.493342 8.889190 -8.704746 13.534960 -24.469173 1.069402 -3.273739 -31.985513 -69.068574 -18.244672 7.184336 19.370019 5.477127 0.000000 0.000000 0.000000 33.035077 12.603743 -14.560985 -6.395362 4.277940 -6.217642 -19.946782 -21.475365 20.616178 -57.663893 8.065630 2.210304 28.292389 48.470236 7.712927 0.000000 0.000000 0.000000 
92.606819 66.788971 194.925018 0.000000 0.000000 0.000000 -131.592036 46.688506 -179.657403 -108.136361 -22.577668 13.051662 80.056975 -6.356306 -25.970312 14.483672 7.176932 9.366076 -58.009118 -25.890469 11.586452 0.000000 0.000000 0.000000 -142.525981 31.703993 173.234143 -114.553583 -0.562390 -37.261137 73.939380 6.057908 -14.834833 -16.741181 -16.875188 59.136194 -22.593786 7.872774 -47.180218 0.000000 0.000000 0.000000 -124.455828 59.054635 161.115816 30.476482 11.207972 19.304543 3.172727 14.925485 3.359028 0.787187 6.426892 -1.197410 0.000000 0.000000 0.000000 10.292567 17.559417 0.204207 -13.571134 36.818131 54.457132 -164.525679 14.465296 -174.437745 0.000000 0.000000 0.000000 29.306440 13.105564 1.780532 9.266081 -9.097932 13.330159 -25.833340 5.986219 -5.423021 -33.487031 -60.997940 -16.214569 3.121772 6.503941 6.745094 0.000000 0.000000 0.000000 33.232845 13.040344 -15.154325 -4.157995 14.483992 -4.493572 -18.368300 -19.270631 25.505226 -53.543728 1.403223 -2.904443 34.609224 63.905374 0.981614 0.000000 0.000000 0.000000 
101.105293 61.352859 206.554352 0.000000 0.000000 0.000000 -121.544350 37.562581 171.168188 -123.601931 -21.614142 7.865881 81.641094 -18.212045 -13.865864 35.683773 2.224227 2.651355 -46.943395 -19.893515 5.511946 0.000000 0.000000 0.000000 -132.089138 26.667628 169.332137 -122.125025 1.881814 -28.946775 61.677441 1.866662 -10.544122 -9.082483 -7.311239 56.859447 -15.917133 3.601823 -51.215415 0.000000 0.000000 0.000000 -116.028918 44.866430 156.571131 29.520655 7.932881 18.737391 1.136052 13.066113 2.849826 0.535701 4.484253 -1.056953 0.000000 0.000000 0.000000 6.450254 16.898663 0.392637 -14.753038 34.836922 55.915006 -152.878977 11.808706 173.053812 0.000000 0.000000 0.000000 29.546528 11.575906 1.385293 9.323459 -7.259219 10.468083 -28.410430 9.928285 -6.394515 -31.712862 -52.449870 -13.098419 3.949124 -9.169051 8.771490 0.000000 0.000000 0.000000 31.440344 12.019682 -15.415132 -1.044823 25.269022 -3.512453 -13.257996 -21.172313 28.799435 -51.369689 -4.384692 -7.339344 42.776782 77.343293 -7.713191 0.000000 0.000000 0.000000 
108.940605 54.624664 218.008392 0.000000 0.000000 0.000000 -116.991305 31.927470 163.864175 -131.464531 -20.454405 3.842174 88.032560 -28.277159 -0.058811 49.027972 -4.330136 -0.964861 -33.824302 -13.282777 -5.002451 0.000000 0.000000 0.000000 -122.477627 26.840581 163.431605 -129.955728 4.797849 -19.252070 53.160482 -4.136277 -5.738990 -0.927362 1.417352 50.017820 -10.315914 0.191966 -55.126214 0.000000 0.000000 0.000000 -114.250077 35.894563 155.874397 29.888860 3.991140 18.884725 -1.087805 9.978709 1.839551 -0.120684 2.809866 -0.659522 0.000000 0.000000 0.000000 2.140661 14.835910 0.267972 -16.985449 34.315068 57.968505 -138.421679 2.400648 162.320771 0.000000 0.000000 0.000000 29.143744 8.804596 0.563556 9.283649 -4.137951 4.742496 -30.754143 11.746850 -6.626784 -26.857771 -47.104106 -10.794591 9.816373 -22.303272 12.456049 0.000000 0.000000 0.000000 28.469292 9.937168 -15.427502 2.434044 34.688639 -3.361675 -4.537936 -24.341758 28.970678 -50.402435 -8.129533 -10.095846 91.577496 87.080868 -57.320382 0.000000 0.000000 0.000000 
116.291290 48.101543 229.776047 0.000000 0.000000 0.000000 -114.361375 29.135009 157.234780 -129.261207 -18.818592 2.416367 94.408801 -32.396216 12.335363 51.339110 -8.311049 -3.645786 -27.583550 -7.610741 -16.699112 0.000000 0.000000 0.000000 -112.732634 28.670388 155.479817 -138.206023 7.502781 -8.552081 55.031408 -10.275585 -0.067875 6.939078 7.926139 39.703657 -8.210735 -0.831133 -59.686175 0.000000 0.000000 0.000000 -113.510046 30.463709 155.479038 31.224657 0.035969 19.250065 -3.482911 6.570762 0.689175 -0.434276 2.111274 -0.194670 0.000000 0.000000 0.000000 -2.219347 11.841171 -0.459382 -19.880299 33.437901 60.232815 -122.828070 -12.878936 156.641892 0.000000 0.000000 0.000000 27.813942 5.666529 -0.264487 9.393291 -0.575135 -2.947342 -32.723399 11.071313 -6.942474 -16.129000 -45.976151 -7.298084 17.983734 -30.261945 16.478101 0.000000 0.000000 0.000000 25.242009 7.383282 -15.219096 6.048472 41.464303 -3.926500 3.321874 -24.737238 24.630757 -50.105124 -9.426270 -10.529450 -174.037250 83.805205 -152.556660 0.000000 0.000000 0.000000 
